<svg xmlns="http://www.w3.org/2000/svg" version="1.1" xmlns:xlink="http://www.w3.org/1999/xlink" xmlns:svgjs="http://svgjs.dev/svgjs" width="1000" height="1000" viewBox="0 0 1000 1000"><rect width="1000" height="1000" fill="#1ebbd7"></rect><g transform="matrix(0.7,0,0,0.7,149.57576905191655,428.6295838756755)"><svg viewBox="0 0 396 81" data-background-color="#1ebbd7" preserveAspectRatio="xMidYMid meet" height="204" width="1000" xmlns="http://www.w3.org/2000/svg" xmlns:xlink="http://www.w3.org/1999/xlink"><g id="tight-bounds" transform="matrix(1,0,0,1,0.2399935077729083,-0.01678076981590948)"><svg viewBox="0 0 395.52 81.03356153963183" height="81.03356153963183" width="395.52"><g><svg viewBox="0 0 395.52 81.03356153963183" height="81.03356153963183" width="395.52"><g><svg viewBox="0 0 395.52 81.03356153963183" height="81.03356153963183" width="395.52"><g id="textblocktransform"><svg viewBox="0 0 395.52 81.03356153963183" height="81.03356153963183" width="395.52" id="textblock"><g><svg viewBox="0 0 395.52 81.03356153963183" height="81.03356153963183" width="395.52"><g transform="matrix(1,0,0,1,0,0)"><svg width="395.52" viewBox="2.0999999046325684 -39.95000076293945 197.17999267578125 40.400001525878906" height="81.03356153963183" data-palette-color="#010c80"><path d="M22.95-37.55L22.95-8Q22.95-3.95 20.25-1.95L20.25-1.95Q18.95-1 17.57-0.48 16.2 0.05 14.9 0.05L14.9 0.05 10.1 0.05Q8.8 0.05 7.43-0.48 6.05-1 4.75-1.95L4.75-1.95Q2.1-3.9 2.1-8L2.1-8 2.1-11.3Q2.1-13.65 5-13.65L5-13.65Q8-13.65 8-11.3L8-11.3 8-8.4Q8-7.1 8.75-6.05 9.5-5 11.35-5L11.35-5 13.65-5Q15.5-5 16.25-6.05 17-7.1 17-8.4L17-8.4 17-37.55Q17-39.95 19.95-39.95L19.95-39.95Q22.95-39.95 22.95-37.55L22.95-37.55ZM39-39.7L49.9-39.7Q51.2-39.7 52.6-39.15 54-38.6 55.3-37.75L55.3-37.75 55.25-37.75Q56.55-36.8 57.25-35.27 57.95-33.75 57.95-31.75L57.95-31.75 57.95-8Q57.95-3.95 55.25-1.95L55.25-1.95Q53.95-1 52.57-0.48 51.2 0.05 49.9 0.05L49.9 0.05 39 0.05Q37.7 0.05 36.32-0.48 34.95-1 33.65-1.95L33.65-1.95Q32.35-2.95 31.65-4.42 30.95-5.9 30.95-8L30.95-8 30.95-31.75Q30.95-33.75 31.65-35.27 32.35-36.8 33.65-37.75L33.65-37.75 33.6-37.75Q34.9-38.6 36.3-39.15 37.7-39.7 39-39.7L39-39.7ZM40.25-5L48.65-5Q50.5-5 51.25-6.05 52-7.1 52-8.4L52-8.4 52-31.3Q52-32.55 51.25-33.6 50.5-34.65 48.65-34.65L48.65-34.65 40.25-34.65Q38.4-34.65 37.65-33.6 36.9-32.55 36.9-31.3L36.9-31.3 36.9-8.4Q36.9-7.1 37.65-6.05 38.4-5 40.25-5L40.25-5ZM74.8-22.85L84.45-22.85Q85.75-22.85 87.15-22.3 88.55-21.75 89.84-20.85L89.84-20.85 89.8-20.85Q91.09-19.95 91.8-18.4 92.5-16.85 92.5-14.85L92.5-14.85 92.5-8Q92.5-3.95 89.8-1.95L89.8-1.95Q88.5-1 87.12-0.48 85.75 0.05 84.45 0.05L84.45 0.05 73.55 0.05Q72.25 0.05 70.87-0.48 69.5-1 68.2-1.95L68.2-1.95Q65.5-3.95 65.5-8L65.5-8 65.5-11.3Q65.5-13.65 68.45-13.65L68.45-13.65Q71.45-13.65 71.45-11.3L71.45-11.3 71.45-8.4Q71.45-7.1 72.2-6.05 72.95-5 74.8-5L74.8-5 83.2-5Q85.05-5 85.8-6.05 86.55-7.1 86.55-8.4L86.55-8.4 86.55-14.45Q86.55-15.7 85.8-16.78 85.05-17.85 83.2-17.85L83.2-17.85 73.55-17.85Q70.95-17.85 68.2-19.75L68.2-19.75Q65.5-21.85 65.5-25.8L65.5-25.8 65.5-31.75Q65.5-33.75 66.2-35.27 66.9-36.8 68.2-37.75L68.2-37.75 68.15-37.75Q69.45-38.6 70.84-39.15 72.25-39.7 73.55-39.7L73.55-39.7 84.45-39.7Q85.75-39.7 87.15-39.15 88.55-38.6 89.84-37.75L89.84-37.75 89.8-37.75Q91.09-36.8 91.8-35.27 92.5-33.75 92.5-31.75L92.5-31.75 92.5-28.8Q92.5-26.45 89.5-26.45L89.5-26.45Q86.55-26.45 86.55-28.8L86.55-28.8 86.55-31.3Q86.55-32.55 85.8-33.6 85.05-34.65 83.2-34.65L83.2-34.65 74.8-34.65Q72.95-34.65 72.2-33.6 71.45-32.55 71.45-31.3L71.45-31.3 71.45-26.2Q71.45-24.9 72.2-23.88 72.95-22.85 74.8-22.85L74.8-22.85ZM121.49-2.1L121.49-37.55Q121.49-39.95 124.44-39.95L124.44-39.95Q127.44-39.95 127.44-37.55L127.44-37.55 127.44-2.1Q127.44 0.3 124.44 0.3L124.44 0.3Q121.49 0.3 121.49-2.1L121.49-2.1ZM106.29-37.55L106.29-2.1Q106.29 0.3 103.29 0.3L103.29 0.3Q100.34 0.3 100.34-2.1L100.34-2.1 100.34-37.55Q100.34-39.95 103.29-39.95L103.29-39.95Q106.29-39.95 106.29-37.55L106.29-37.55ZM117.99-20.65L117.99-20.65Q117.99-18.9 116.79-17.7 115.59-16.5 113.84-16.5L113.84-16.5Q112.14-16.5 110.94-17.7 109.74-18.9 109.74-20.65L109.74-20.65Q109.74-22.4 110.94-23.6 112.14-24.8 113.84-24.8L113.84-24.8Q115.59-24.8 116.79-23.6 117.99-22.4 117.99-20.65ZM161.69-37.55L161.69-8Q161.69-3.95 158.99-1.95L158.99-1.95Q157.69-1 156.31-0.48 154.94 0.05 153.64 0.05L153.64 0.05 142.74 0.05Q141.44 0.05 140.06-0.48 138.69-1 137.39-1.95L137.39-1.95Q136.09-2.95 135.39-4.42 134.69-5.9 134.69-8L134.69-8 134.69-37.55Q134.69-39.95 137.64-39.95L137.64-39.95Q140.64-39.95 140.64-37.55L140.64-37.55 140.64-8.4Q140.64-7.1 141.39-6.05 142.14-5 143.99-5L143.99-5 152.39-5Q154.24-5 154.99-6.05 155.74-7.1 155.74-8.4L155.74-8.4 155.74-37.55Q155.74-39.95 158.69-39.95L158.69-39.95Q161.69-39.95 161.69-37.55L161.69-37.55ZM193.49-1.2L182.49-34.8 171.54-1.2 171.54-1.25Q171.24-0.5 170.71-0.03 170.19 0.45 169.44 0.45L169.44 0.45Q169.04 0.45 168.66 0.38 168.29 0.3 167.89 0.2L167.89 0.2 167.94 0.2Q165.09-0.7 165.84-3L165.84-3 177.24-37.65Q177.49-38.45 178.11-39 178.74-39.55 179.59-39.65L179.59-39.65Q180.44-39.8 181.24-39.88 182.04-39.95 182.49-39.95L182.49-39.95Q182.94-39.95 183.74-39.88 184.54-39.8 185.39-39.7L185.39-39.7Q186.09-39.6 186.76-38.95 187.44-38.3 187.79-37.65L187.79-37.65Q190.59-29.05 193.46-20.33 196.34-11.6 199.14-3L199.14-3Q199.84-0.7 197.04 0.2L197.04 0.2Q196.64 0.3 196.31 0.38 195.99 0.45 195.59 0.45L195.59 0.45Q194.89 0.45 194.31-0.03 193.74-0.5 193.49-1.25L193.49-1.25 193.49-1.2ZM186.24-12L186.24-12Q186.24-10.4 185.11-9.28 183.99-8.15 182.39-8.15L182.39-8.15Q180.79-8.15 179.69-9.28 178.59-10.4 178.59-12L178.59-12Q178.59-13.6 179.69-14.73 180.79-15.85 182.39-15.85L182.39-15.85Q183.99-15.85 185.11-14.73 186.24-13.6 186.24-12Z" opacity="1" transform="matrix(1,0,0,1,0,0)" fill="#010c80" class="wordmark-text-0" data-fill-palette-color="primary" id="text-0"></path></svg></g></svg></g></svg></g></svg></g></svg></g><defs></defs></svg><rect width="395.52" height="81.03356153963183" fill="none" stroke="none" visibility="hidden"></rect></g></svg></g></svg>